<svg width="40" height="40" viewBox="0 0 40 40" fill="none" xmlns="http://www.w3.org/2000/svg">
<path d="M20 17.5C18.3518 17.5 16.7407 17.0112 15.3702 16.0956C13.9998 15.1799 12.9317 13.8784 12.301 12.3557C11.6703 10.833 11.5052 9.15741 11.8268 7.5409C12.1483 5.92439 12.942 4.43953 14.1074 3.27409C15.2729 2.10866 16.7577 1.31498 18.3742 0.993439C19.9907 0.671896 21.6663 0.836924 23.189 1.46765C24.7117 2.09838 26.0132 3.16649 26.9289 4.5369C27.8446 5.90731 28.3333 7.51847 28.3333 9.16665C28.3333 11.3768 27.4554 13.4964 25.8925 15.0592C24.3297 16.622 22.2101 17.5 20 17.5ZM20 4.16665C19.0111 4.16665 18.0444 4.45989 17.2221 5.0093C16.3999 5.55871 15.759 6.3396 15.3806 7.25323C15.0022 8.16686 14.9031 9.1722 15.0961 10.1421C15.289 11.112 15.7652 12.0029 16.4645 12.7022C17.1637 13.4014 18.0546 13.8777 19.0245 14.0706C19.9944 14.2635 20.9998 14.1645 21.9134 13.786C22.827 13.4076 23.6079 12.7667 24.1573 11.9445C24.7067 11.1223 25 10.1556 25 9.16665C25 7.84057 24.4732 6.5688 23.5355 5.63112C22.5978 4.69343 21.3261 4.16665 20 4.16665Z" fill="white"/>
<path d="M35 39.1667H4.99999C4.55797 39.1667 4.13404 38.9911 3.82148 38.6785C3.50892 38.366 3.33333 37.942 3.33333 37.5V32.5C3.33333 28.9638 4.73809 25.5724 7.23857 23.0719C9.73906 20.5714 13.1304 19.1667 16.6667 19.1667H23.3333C26.8695 19.1667 30.2609 20.5714 32.7614 23.0719C35.2619 25.5724 36.6667 28.9638 36.6667 32.5V37.5C36.6667 37.942 36.4911 38.366 36.1785 38.6785C35.8659 38.9911 35.442 39.1667 35 39.1667ZM6.66666 35.8334H33.3333V32.5C33.3333 29.8479 32.2798 27.3043 30.4044 25.429C28.529 23.5536 25.9855 22.5 23.3333 22.5H16.6667C14.0145 22.5 11.471 23.5536 9.59559 25.429C7.72023 27.3043 6.66666 29.8479 6.66666 32.5V35.8334Z" fill="white"/>
</svg>
