<svg width="40" height="40" viewBox="0 0 40 40" fill="none" xmlns="http://www.w3.org/2000/svg">
<g clip-path="url(#clip0_99_43)">
<path d="M25.544 34.704C24.868 34.704 24.32 35.252 24.32 35.928C24.32 36.604 24.872 37.152 25.544 37.152C26.22 37.152 26.768 36.604 26.768 35.928C26.768 35.252 26.22 34.704 25.544 34.704Z" fill="white"/>
<path d="M0.399994 23.668C0.399994 27.86 3.55999 31.02 7.75199 31.02H8.97599V16.32H7.75199C3.55999 16.32 0.399994 19.48 0.399994 23.668Z" fill="white"/>
<path d="M32.252 16.32H31.028V31.02H32.252C36.444 31.02 39.6 27.86 39.6 23.668C39.6 19.48 36.44 16.32 32.252 16.32Z" fill="white"/>
<path d="M33.476 34.696H29.004C28.496 33.276 27.136 32.256 25.544 32.256C23.52 32.256 21.868 33.908 21.868 35.932C21.868 37.96 23.52 39.608 25.544 39.608C27.148 39.608 28.512 38.58 29.012 37.148H33.476C35.572 37.148 37.152 35.568 37.152 33.472H34.7C34.7 34.312 34.084 34.696 33.476 34.696ZM25.544 37.156C24.868 37.156 24.32 36.608 24.32 35.932C24.32 35.256 24.872 34.708 25.544 34.708C26.22 34.708 26.768 35.256 26.768 35.932C26.768 36.608 26.22 37.156 25.544 37.156Z" fill="white"/>
<path d="M31.024 13.876H33.472C33.476 6.444 27.428 0.395996 20 0.395996C12.572 0.395996 6.52399 6.444 6.52399 13.88H8.97199C8.97599 7.792 13.92 2.844 20 2.844C26.08 2.844 31.024 7.792 31.024 13.876Z" fill="white"/>
</g>
<defs>
<clipPath id="clip0_99_43">
<rect width="40" height="40" fill="white"/>
</clipPath>
</defs>
</svg>
