<svg width="88" height="83" viewBox="0 0 88 83" fill="none" xmlns="http://www.w3.org/2000/svg">
<g filter="url(#filter0_d_78_532)">
<path d="M55 30.8V15.2L55.2113 15H55.6338L69.5775 22.6L70 23L69.5775 23.4L55.8451 30.8L55.4225 31H55.2113L55 30.8Z" fill="#5BF3E1"/>
<path d="M37.913 3.26087L39.2174 4.13043L39.8696 4.78261L40.3043 5.43478L40.7391 6.30435L40.9565 7.17391V8.04348L40.7391 8.91304L40.3043 10L39.6522 10.8696L38.7826 11.5217L38.1304 11.9565L37.6957 12.1739L36.8261 12.3913H35.3043L34.6522 12.1739L33.5652 11.5217L30.9565 10.2174L29.4348 9.78261L28.1304 9.56522H24.8696L22.6957 10L21.3913 10.4348L20.087 11.087L18.1304 12.3913L16.8261 13.6957L15.7391 15L15.087 16.087L14.4348 17.6087L14 18.6957L13.7826 19.7826L13.5652 21.087V23.913L13.7826 25L14 25.8696L14.4348 27.1739L14.6522 27.6087L15.5217 29.1304L16.8261 30.8696L17.6957 31.7391L18.7826 32.6087L20.5217 33.6957L22.6957 34.5652L24.8696 35H28.3478L30.087 34.5652L30.7391 34.3478L32.2609 33.6957L34 32.6087L35.7391 31.087L36.6087 30L37.4783 28.6957L37.913 27.8261V27.3913H31.3913L30.5217 27.1739L29.8696 26.9565L29 26.5217L28.3478 25.8696L27.6957 25L27.2609 24.1304L27.0435 23.2609V22.8261L27.4783 21.087L27.913 20.2174L28.7826 19.3478L29.6522 18.6957L30.3043 18.4783L31.6087 18.2609H39.2174L39.6522 18.0435L39.8696 17.8261L40.087 17.3913L40.5217 15.8696L40.9565 14.5652L41.3913 13.4783L42.2609 11.7391L43.1304 10.2174L44.4348 8.47826L47.0435 5.86957L49.6522 3.91304L51.1739 3.04348L52.4783 2.3913L54 1.73913L55.3043 1.30435L57.913 0.652174L59.6522 0.434783H63.5652L64.8696 0.652174L67.0435 1.08696L68.5652 1.52174L70.3043 2.17391L71.3913 2.6087L72.2609 3.04348L74.4348 4.34783L75.9565 5.43478L77.6956 6.95652L78.7826 8.04348L80.087 9.78261L81.3913 11.9565L82.2609 13.6957L83.1304 16.3043L83.7826 19.7826L84 21.9565V23.913L83.7826 26.087L83.5652 27.6087L83.1304 29.3478L82.6956 30.6522L80.7391 34.5652L79.6522 36.087L78.5652 37.3913L76.6087 39.3478L75.3043 40.4348L74.4348 41.087L73.3478 41.7391L71.8261 42.6087L70.9565 43.0435L68.7826 43.913L67.0435 44.3478L63.1304 45H60.087L58.5652 44.7826L57.4783 44.5652L55.5217 44.1304L54.2174 43.6957L53.1304 43.2609L50.5217 41.9565L49.8696 41.5217L49 40.8696L48.3478 40.2174L47.913 39.5652L47.4783 38.6957L47.2609 37.8261V36.9565L47.4783 35.8696L48.1304 34.5652L49 33.6957L49.6522 33.2609L50.7391 32.8261L51.6087 32.6087H52.6957L53.5652 32.8261L54.4348 33.2609L55.087 33.6957L56.3913 34.3478L57.913 35L59.6522 35.4348H63.1304L64.4348 35.2174L66.6087 34.5652L68.3478 33.6957L69.2174 33.0435L70.3043 32.1739L71.3913 31.087L72.6956 29.3478L73.3478 28.0435L73.7826 26.9565L74.2174 25.4348L74.4348 24.1304V20.8696L74.2174 19.5652L73.3478 17.3913L72.6956 16.087L72.0435 15.2174L70.7391 13.6957L69.8696 12.8261L69 12.1739L68.3478 11.7391L67.4783 11.3043L65.3043 10.4348L64.4348 10.2174L63.1304 10H60.087L58.7826 10.2174L56.1739 11.087L54.6522 11.9565L53.5652 12.8261L51.3913 15L50.5217 16.3043L49.6522 18.0435L49.2174 19.7826L48.7826 22.1739L48.5652 25L48.1304 27.1739L47.6957 28.6957L47.4783 29.5652L47.0435 30.6522L46.3913 32.1739L45.9565 33.0435L45.3043 34.1304L44.4348 35.4348L43.5652 36.5217L42.913 37.3913L42.0435 38.2609L39.8696 40L38.3478 41.087L37.2609 41.7391L35.9565 42.3913L33.7826 43.2609L31.3913 43.913L29 44.3478L27.4783 44.5652H24.8696L22.6957 44.3478L20.7391 43.913L17.913 43.0435L15.3043 41.7391L14.2174 41.087L11.6087 39.1304L9.86957 37.3913L8.13043 35.2174L7.26087 33.913L6.6087 32.8261L6.17391 31.9565L5.73913 30.8696L5.30435 30L5.08696 29.3478L4.86957 28.4783L4.65217 27.8261L4.21739 26.087L4 21.9565L4.21739 19.7826L4.43478 18.0435L5.08696 15.4348L5.30435 14.7826L6.17391 12.6087L6.82609 11.5217L7.04348 11.087L7.69565 10L8.34783 9.13043L9.21739 8.04348L10.3043 6.73913L12.2609 5L13.3478 4.13043L15.3043 2.82609L17.0435 1.95652L18.1304 1.52174L20.087 0.869565L21.8261 0.434783L22.913 0.217391L25.3043 0H27.913L29.6522 0.217391L30.9565 0.434783L32.6957 0.869565L33.7826 1.30435L35.087 1.73913L36.3913 2.3913L37.913 3.26087Z" fill="white"/>
<path d="M19.0866 63.968L16.1302 64.2876C16.1006 63.9858 16.0089 63.7047 15.855 63.4442C15.7011 63.1838 15.4703 62.9767 15.1626 62.8228C14.8607 62.663 14.4701 62.5831 13.9907 62.5831C13.2923 62.5831 12.6797 62.7399 12.153 63.0536C11.6262 63.3673 11.3273 63.7698 11.2563 64.261C11.1912 64.628 11.28 64.9268 11.5226 65.1577C11.7653 65.3885 12.2151 65.5838 12.8721 65.7436L15.127 66.2408C16.3699 66.5189 17.2636 66.9687 17.8082 67.5902C18.3586 68.2116 18.5509 69.0255 18.3852 70.0316C18.2432 70.872 17.8762 71.6119 17.2844 72.2511C16.6925 72.8844 15.9349 73.3786 15.0116 73.7337C14.0943 74.0888 13.0763 74.2663 11.9577 74.2663C10.259 74.2663 8.95102 73.9142 8.03365 73.2099C7.12219 72.4996 6.66942 71.5231 6.67534 70.2802L9.83585 69.9783C9.87136 70.5939 10.0874 71.0585 10.4839 71.3722C10.8805 71.6799 11.4309 71.8368 12.1352 71.8427C12.9283 71.8486 13.5971 71.6829 14.1416 71.3455C14.692 71.0023 15.0028 70.585 15.0738 70.0938C15.133 69.7268 15.0412 69.4279 14.7986 69.1971C14.5618 68.9663 14.1386 68.7828 13.529 68.6467L11.2918 68.1584C10.0252 67.8802 9.12266 67.4097 8.58407 66.7468C8.0514 66.078 7.87089 65.2346 8.04252 64.2166C8.18457 63.388 8.53081 62.6748 9.08123 62.0771C9.63758 61.4734 10.3508 61.0088 11.2208 60.6832C12.0908 60.3518 13.0644 60.1861 14.1416 60.1861C15.7633 60.1861 16.9855 60.5264 17.8082 61.207C18.6308 61.8877 19.057 62.808 19.0866 63.968Z" fill="white"/>
<path d="M26.282 74.2663C24.9208 74.2663 23.8022 73.9675 22.9262 73.3697C22.0503 72.7719 21.4377 71.9463 21.0885 70.8928C20.7452 69.8333 20.689 68.6141 20.9198 67.2351C21.1447 65.8501 21.6093 64.628 22.3137 63.5685C23.0239 62.5032 23.9176 61.6746 24.9948 61.0827C26.0719 60.485 27.2764 60.1861 28.608 60.1861C29.7148 60.1861 30.6588 60.3903 31.4401 60.7986C32.2272 61.2011 32.8132 61.7723 33.1979 62.5121C33.5885 63.246 33.7394 64.1042 33.6507 65.0866H30.57C30.5582 64.4297 30.354 63.8822 29.9575 63.4442C29.5609 63.0004 28.9809 62.7784 28.2174 62.7784C27.5545 62.7784 26.9449 62.956 26.3886 63.3111C25.8322 63.6603 25.3617 64.1634 24.977 64.8203C24.5923 65.4773 24.326 66.2644 24.178 67.1818C24.0241 68.111 24.0271 68.91 24.1869 69.5788C24.3526 70.2417 24.6515 70.7537 25.0835 71.1147C25.5215 71.4698 26.0749 71.6474 26.7437 71.6474C27.2172 71.6474 27.6581 71.5586 28.0665 71.381C28.4749 71.1976 28.8329 70.9342 29.1407 70.5909C29.4544 70.2476 29.7 69.8304 29.8776 69.3391H32.9493C32.7066 70.3039 32.2746 71.1591 31.6531 71.9048C31.0376 72.6447 30.2741 73.2247 29.3627 73.6449C28.4512 74.0592 27.4243 74.2663 26.282 74.2663Z" fill="white"/>
<path d="M34.7981 74L37.0708 60.3636H40.187L39.8052 62.6364H39.9473C40.3201 61.8492 40.8469 61.2425 41.5275 60.8164C42.2141 60.3843 42.948 60.1683 43.7292 60.1683C43.9127 60.1683 44.111 60.1772 44.324 60.195C44.5371 60.2068 44.7206 60.2275 44.8745 60.2571L44.3773 63.2134C44.2412 63.1661 44.0281 63.1246 43.7381 63.0891C43.454 63.0477 43.1729 63.027 42.8947 63.027C42.3088 63.027 41.7643 63.1542 41.2612 63.4087C40.764 63.6573 40.3438 64.0035 40.0005 64.4474C39.6573 64.8913 39.4353 65.4033 39.3347 65.9833L38.0119 74H34.7981Z" fill="white"/>
<path d="M54.376 68.2649L55.6988 60.3636H58.9126L56.6398 74H53.5237L53.9321 71.5763H53.79C53.3639 72.3398 52.7543 72.9643 51.9612 73.4496C51.174 73.9349 50.2685 74.1776 49.2446 74.1776C48.3509 74.1776 47.5963 73.9793 46.9807 73.5827C46.3652 73.1803 45.9272 72.5973 45.6668 71.8338C45.4123 71.0644 45.3738 70.1352 45.5514 69.0462L47.0074 60.3636H50.2211L48.854 68.549C48.7178 69.4131 48.8421 70.0997 49.2268 70.6087C49.6175 71.1177 50.1975 71.3722 50.9669 71.3722C51.4404 71.3722 51.9168 71.2568 52.3962 71.0259C52.8815 70.7951 53.3047 70.4518 53.6657 69.9961C54.0268 69.5344 54.2635 68.9574 54.376 68.2649Z" fill="white"/>
<path d="M59.9535 74L62.2262 60.3636H65.3068L64.9162 62.6808H65.0849C65.4992 61.8995 66.0703 61.2899 66.7983 60.8519C67.5263 60.408 68.346 60.1861 69.2575 60.1861C70.1748 60.1861 70.9147 60.411 71.4769 60.8608C72.0451 61.3047 72.3943 61.9113 72.5245 62.6808H72.6665C73.0927 61.9173 73.7023 61.3106 74.4954 60.8608C75.2944 60.411 76.1911 60.1861 77.1854 60.1861C78.4283 60.1861 79.3812 60.5826 80.044 61.3757C80.7069 62.1688 80.9111 63.3259 80.6566 64.8469L79.1296 74H75.9158L77.3718 65.3441C77.502 64.4977 77.3718 63.8793 76.9812 63.4886C76.5965 63.0921 76.0786 62.8938 75.4276 62.8938C74.6522 62.8938 74.0071 63.1335 73.4922 63.6129C72.9832 64.0923 72.6695 64.7197 72.5511 65.495L71.1218 74H67.9702L69.4439 65.2109C69.5504 64.5066 69.4261 63.9444 69.071 63.5241C68.7218 63.1039 68.2069 62.8938 67.5263 62.8938C67.0646 62.8938 66.6237 63.0122 66.2035 63.2489C65.7833 63.4857 65.4252 63.8171 65.1293 64.2433C64.8393 64.6635 64.6499 65.1518 64.5611 65.7081L63.1761 74H59.9535Z" fill="white"/>
</g>
<defs>
<filter id="filter0_d_78_532" x="0" y="0" width="88" height="82.2664" color-interpolation-filters="sRGB">
<feFlood flood-opacity="0" result="BackgroundImageFix"/>
<feColorMatrix in="SourceAlpha" values="0 0 0 0 0 0 0 0 0 0 0 0 0 0 0 0 0 0 127 0" result="hardAlpha"/>
<feOffset dy="4"/>
<feGaussianBlur stdDeviation="2"/>
<feComposite in2="hardAlpha" operator="out"/>
<feColorMatrix values="0 0 0 0 0 0 0 0 0 0 0 0 0 0 0 0 0 0 0.25 0"/>
<feBlend in2="BackgroundImageFix" result="effect1_dropShadow_78_532"/>
<feBlend in="SourceGraphic" in2="effect1_dropShadow_78_532" result="shape"/>
</filter>
</defs>
</svg>
