<svg width="40" height="40" viewBox="0 0 40 40" fill="none" xmlns="http://www.w3.org/2000/svg">
<g clip-path="url(#clip0_99_38)">
<path fill-rule="evenodd" clip-rule="evenodd" d="M20 0C9 0 0 9 0 20C0 31 9 40 20 40C31 40 40 31 40 20C40 9 31 0 20 0ZM22 34H18V30H22V34ZM26.2 18.6L24.4 20.4C22.8 21.8 22 23 22 26H18V25C18 22.8 18.8 20.8 20.4 19.4L22.8 16.8C23.6 16.2 24 15.2 24 14C24 11.8 22.2 10 20 10C17.8 10 16 11.8 16 14H12C12 9.6 15.6 6 20 6C24.4 6 28 9.6 28 14C28 15.8 27.2 17.4 26.2 18.6Z" fill="white"/>
</g>
<defs>
<clipPath id="clip0_99_38">
<rect width="40" height="40" fill="white"/>
</clipPath>
</defs>
</svg>
