<svg width="50" height="50" viewBox="0 0 50 50" fill="none" xmlns="http://www.w3.org/2000/svg">
<path d="M25 6.25C25 6.25 12.1125 17.375 4.91042 23.4C4.48751 23.7833 4.16667 24.3417 4.16667 25C4.16667 26.1521 5.09792 27.0833 6.25001 27.0833H10.4167V41.6667C10.4167 42.8187 11.3479 43.75 12.5 43.75H18.75C19.9021 43.75 20.8333 42.8167 20.8333 41.6667V33.3333H29.1667V41.6667C29.1667 42.8167 30.0979 43.75 31.25 43.75H37.5C38.6521 43.75 39.5833 42.8187 39.5833 41.6667V27.0833H43.75C44.9021 27.0833 45.8333 26.1521 45.8333 25C45.8333 24.3417 45.5125 23.7833 45.0354 23.4C37.8833 17.375 25 6.25 25 6.25Z" fill="white"/>
</svg>
